<svg width="25" height="26" viewBox="0 0 25 26" fill="none" xmlns="http://www.w3.org/2000/svg">
<path fill-rule="evenodd" clip-rule="evenodd" d="M11.7139 24.8284C9.07894 22.5396 2 15.9052 2 10.6866C2 4.27464 6.27464 0 12.6866 0C19.0986 0 23.3732 5.34331 23.3732 10.6866C23.3732 15.0609 16.2111 22.3001 13.6135 24.7818C13.0825 25.2891 12.2683 25.3099 11.7139 24.8284ZM16.2488 9.26184C16.2488 11.2292 14.654 12.824 12.6866 12.824C10.7193 12.824 9.1244 11.2292 9.1244 9.26184C9.1244 7.29449 10.7193 5.69964 12.6866 5.69964C14.654 5.69964 16.2488 7.29449 16.2488 9.26184Z" fill="black"/>
</svg>
