<svg width="25" height="26" viewBox="0 0 25 26" fill="none" xmlns="http://www.w3.org/2000/svg">
<path fill-rule="evenodd" clip-rule="evenodd" d="M12.8305 15.9894L15.6572 13.2229C16.4379 12.4589 16.6314 11.2916 16.1377 10.3252L15.9775 10.0117C15.4837 9.04525 15.6773 7.87801 16.458 7.11396L19.9629 3.68382C20.2133 3.43873 20.6194 3.43873 20.8698 3.68382C20.9185 3.73151 20.9591 3.78659 20.9899 3.84692L22.4058 6.61828C23.489 8.73841 23.0644 11.299 21.3517 12.9751L13.6581 20.5047C11.7939 22.3291 9.03639 22.9662 6.53529 22.1503L3.43865 21.1401C3.10267 21.0304 2.92109 20.675 3.03308 20.3462C3.06456 20.2538 3.1176 20.1698 3.188 20.1009L6.58833 16.7731C7.36903 16.0091 8.56171 15.8196 9.54923 16.3029L9.86956 16.4596C10.8571 16.9428 12.0498 16.7534 12.8305 15.9894Z" fill="#262423"/>
</svg>
