<svg width="25" height="25" viewBox="0 0 25 25" fill="none" xmlns="http://www.w3.org/2000/svg">
<path fill-rule="evenodd" clip-rule="evenodd" d="M2 3C0.895431 3 0 3.89543 0 5V19.0556C0 20.1601 0.89543 21.0556 2 21.0556H23C24.1046 21.0556 25 20.1601 25 19.0556V5C25 3.89543 24.1046 3 23 3H2ZM22.445 5.97835C22.1722 5.47182 21.5405 5.2823 21.0339 5.55505L12.5 10.1502L3.9661 5.55505C3.45957 5.2823 2.82784 5.47182 2.55509 5.97835C2.28234 6.48489 2.47186 7.11662 2.97839 7.38936L12.0062 12.2505C12.3145 12.4165 12.6856 12.4165 12.9939 12.2505L22.0217 7.38936C22.5282 7.11662 22.7177 6.48489 22.445 5.97835Z" fill="black"/>
</svg>
