<svg width="25" height="26" viewBox="0 0 25 26" fill="none" xmlns="http://www.w3.org/2000/svg">
<path d="M14.8884 17.9032C14.4816 17.4964 14.4816 16.8369 14.8884 16.4301C15.2952 16.0233 15.9548 16.0233 16.3615 16.4301L20.5282 20.5968C20.935 21.0036 20.935 21.6631 20.5282 22.0699C20.1214 22.4767 19.4619 22.4767 19.0551 22.0699L14.8884 17.9032Z" fill="#262423"/>
<path fill-rule="evenodd" clip-rule="evenodd" d="M4.16669 11.9583C4.16669 15.9854 7.43128 19.25 11.4584 19.25C15.4854 19.25 18.75 15.9854 18.75 11.9583C18.75 7.93125 15.4854 4.66666 11.4584 4.66666C7.43128 4.66666 4.16669 7.93125 4.16669 11.9583ZM16.6667 11.9583C16.6667 14.8348 14.3348 17.1667 11.4584 17.1667C8.58187 17.1667 6.25002 14.8348 6.25002 11.9583C6.25002 9.08185 8.58187 6.75 11.4584 6.75C14.3348 6.75 16.6667 9.08185 16.6667 11.9583Z" fill="#262423"/>
</svg>
