<svg width="25" height="26" viewBox="0 0 25 26" fill="none" xmlns="http://www.w3.org/2000/svg">
<circle cx="12.5" cy="13" r="12.5" fill="#262423"/>
<path d="M17.4543 8.03906C16.2195 6.80859 14.5732 6.125 12.8354 6.125C9.22256 6.125 6.29573 9.04167 6.29573 12.6419C6.29573 13.7812 6.61585 14.9206 7.16463 15.8776L6.25 19.25L9.72561 18.3385C10.686 18.8398 11.7378 19.1133 12.8354 19.1133C16.4482 19.1133 19.375 16.1966 19.375 12.5964C19.3293 10.9102 18.689 9.26953 17.4543 8.03906ZM15.9909 14.9661C15.8537 15.3307 15.2134 15.6953 14.8933 15.7409C14.6189 15.7865 14.253 15.7865 13.8872 15.6953C13.6585 15.6042 13.3384 15.513 12.9726 15.3307C11.3262 14.6471 10.2744 13.0065 10.1829 12.8698C10.0915 12.7786 9.49695 12.0039 9.49695 11.1836C9.49695 10.3633 9.90854 9.9987 10.0457 9.81641C10.1829 9.63411 10.3659 9.63411 10.503 9.63411C10.5945 9.63411 10.7317 9.63411 10.8232 9.63411C10.9146 9.63411 11.0518 9.58854 11.189 9.90755C11.3262 10.2266 11.6463 11.0469 11.6921 11.0924C11.7378 11.1836 11.7378 11.2747 11.6921 11.3659C11.6463 11.457 11.6006 11.5482 11.5091 11.6393C11.4177 11.7305 11.3262 11.8672 11.2805 11.9128C11.189 12.0039 11.0976 12.0951 11.189 12.2318C11.2805 12.4141 11.6006 12.9154 12.1037 13.3711C12.7439 13.918 13.247 14.1003 13.4299 14.1914C13.6128 14.2826 13.7043 14.237 13.7957 14.1458C13.8872 14.0547 14.2073 13.6901 14.2988 13.5078C14.3902 13.3255 14.5274 13.3711 14.6646 13.4167C14.8018 13.4622 15.625 13.8724 15.7622 13.9635C15.9451 14.0547 16.0366 14.1003 16.0823 14.1458C16.128 14.2826 16.128 14.6016 15.9909 14.9661Z" fill="white"/>
</svg>
